# xmcd
#
# Track frame offsets: 
#        150
#        18320
#        48865
#        67611
#        83872
#        105381
#        124692
#        141531
#        157661
#        183408
#        201649
#        229770
#
# Disc length: 3354 seconds
#
# Revision: 4
# Processed by: cddbd v1.4PL0 Copyright (c) Steve Scherf et al.
# Submitted via: ExactAudioCopy v0.95a3
#
DISCID=960d180c
DTITLE=John Trudell - Blue Indians
DYEAR=1999
DGENRE=
TTITLE0=Blue Indians
TTITLE1=Bad Dog
TTITLE2=All Nite Cafe
TTITLE3=Toy
TTITLE4=Devil and Me
TTITLE5=Johnny and Joe
TTITLE6=Angel of Sin
TTITLE7=Terminal Neon
TTITLE8=Dizzy Duck
TTITLE9=Grassfire
TTITLE10=The Only One for Me
TTITLE11=You Were
EXTD=
EXTT0=
EXTT1=
EXTT2=
EXTT3=
EXTT4=
EXTT5=
EXTT6=
EXTT7=
EXTT8=
EXTT9=
EXTT10=
EXTT11=
PLAYORDER=
